# AST/ASF file generated using VICON BodyLanguage
# -----------------------------------------------
:version 1.10
:name VICON
:units
  mass 1.0
  length 0.45
  angle deg
:documentation
   .ast/.asf automatically generated from VICON data using
   VICON BodyBuilder and BodyLanguage model FoxedUp or BRILLIANT.MOD
:root
   order TX TY TZ RX RY RZ
   axis XYZ
   position 0 0 0  
   orientation 0 0 0 
:bonedata
  begin
     id 1 
     name lhipjoint
     direction 0.535335 -0.74333 0.401095 
     length 2.04549 
     axis 0 0 0  XYZ
  end
  begin
     id 2 
     name lfemur
     direction 0.34202 -0.939693 0  
     length 6.95643  
     axis 0 0 20  XYZ
    dof rx ry rz
    limits (-160.0 20.0)
           (-70.0 70.0)
           (-60.0 70.0)
  end
  begin
     id 3 
     name ltibia
     direction 0.34192 -0.939729 0   
     length 5.55969   
     axis 0 0 20   XYZ
    dof rx
    limits (-10.0 170.0)
  end
  begin
     id 4 
     name lfoot
     direction 0.216943 -0.596046 0.773088   
     length 2.27918   
     axis -90 7.62852e-016 20   XYZ
    dof rx rz
    limits (-45.0 90.0)
           (-70.0 20.0)
  end
  begin
     id 5 
     name ltoes
     direction 1.53519e-011 -4.21748e-011 1   
     length 1.05562   
     axis -90 7.62852e-016 20   XYZ
    dof rx
    limits (-90.0 20.0)
  end
  begin
     id 6 
     name rhipjoint
     direction -0.576368 -0.719173 0.38806   
     length 2.1142  
     axis 0 0 0  XYZ 
  end
  begin
     id 7 
     name rfemur
     direction -0.34202 -0.939693 0   
     length 7.07928   
     axis 0 0 -20   XYZ
    dof rx ry rz
    limits (-160.0 20.0)
           (-70.0 70.0)
           (-70.0 60.0)
  end
  begin
     id 8 
     name rtibia
     direction -0.34202 -0.939693 0   
     length 5.79974   
     axis 0 0 -20   XYZ
    dof rx
    limits (-10.0 170.0)
 end
 begin
     id 9 
     name rfoot
     direction -0.189288 -0.520065 0.832888   
     length 2.42173  
     axis -90 -7.62852e-016 -20   XYZ
    dof rx rz
    limits (-45.0 90.0)
           (-20.0 70.0)
  end
  begin
     id 10 
     name rtoes
     direction -1.53574e-011 -4.21658e-011 1   
     length 1.14469   
     axis -90 -7.62852e-016 -20   XYZ
    dof rx
    limits (-90.0 20.0)
  end
:hierarchy
  begin
    root lhipjoint rhipjoint
    lhipjoint lfemur
    lfemur ltibia
    ltibia lfoot
    lfoot ltoes
    rhipjoint rfemur
    rfemur rtibia
    rtibia rfoot
    rfoot rtoes
end

#!OML:ASF C:\KaitlinTest1\Natural Motions\Nikki\Session 2\Nikki.ASF
:FULLY-SPECIFIED
:DEGREES
1
root -18.9671 16.6331 5.04132 -156.751 85.2016 -166.357
rfemur -7.62971 -16.6732 20.9591
rtibia 11.1548
rfoot -10.3718 11.3066
rtoes 2.78299e-014
lfemur -10.2146 11.9418 -17.9597
ltibia 10.0727
lfoot -1.98781 -17.2755
ltoes 3.81667e-014
2
root -18.9666 16.6331 5.0413 -156.629 85.2208 -166.24
rfemur -7.62211 -16.6534 20.9619
rtibia 11.1286
rfoot -10.3512 11.3086
rtoes -3.81667e-014
lfemur -10.2228 11.9843 -17.9591
ltibia 10.0855
lfoot -2.03085 -17.2918
ltoes -3.49861e-014
3
root -18.9668 16.6334 5.04149 -156.507 85.2447 -166.116
rfemur -7.61894 -16.6463 20.9631
rtibia 11.1246
rfoot -10.3647 11.3262
rtoes -9.54166e-015
lfemur -10.2218 11.993 -17.954
ltibia 10.0959
lfoot -2.03505 -17.2754
ltoes -1.43125e-014
4
root -18.967 16.6336 5.04166 -156.465 85.2685 -166.076
rfemur -7.62171 -16.6105 20.96
rtibia 11.1171
rfoot -10.3624 11.3174
rtoes -5.48646e-014
lfemur -10.2244 11.9931 -17.9565
ltibia 10.1046
lfoot -2.03506 -17.2594
ltoes -1.90833e-014
5
root -18.9683 16.6335 5.04241 -156.303 85.2664 -165.91
rfemur -7.62453 -16.5643 20.9818
rtibia 11.1167
rfoot -10.3473 11.276
rtoes -8.42847e-014
lfemur -10.2263 11.9804 -17.9364
ltibia 10.1022
lfoot -2.02375 -17.2544
ltoes -9.06458e-014
6
root -18.9673 16.6335 5.04239 -156.328 85.2931 -165.94
rfemur -7.63612 -16.5751 20.971
rtibia 11.1311
rfoot -10.3718 11.31
rtoes 4.37326e-014
lfemur -10.2131 11.9317 -17.9417
ltibia 10.0922
lfoot -2.00416 -17.1532
ltoes 1.43125e-014
7
root -18.9671 16.6339 5.04245 -156.18 85.3057 -165.8
rfemur -7.64637 -16.5379 20.9837
rtibia 11.1368
rfoot -10.3757 11.2775
rtoes 8.5875e-014
lfemur -10.2145 11.9408 -17.9336
ltibia 10.0799
lfoot -1.9893 -17.1558
ltoes 4.77083e-014
8
root -18.9668 16.6333 5.04256 -156.146 85.3134 -165.744
rfemur -7.62161 -16.5458 20.9825
rtibia 11.1402
rfoot -10.3788 11.2803
rtoes -1.03368e-014
lfemur -10.1719 11.9169 -17.9226
ltibia 10.0641
lfoot -1.99041 -17.1273
ltoes 5.40694e-014
9
root -18.9661 16.6334 5.04213 -156.172 85.3376 -165.759
rfemur -7.62161 -16.5458 20.9825
rtibia 11.1402
rfoot -10.3859 11.3188
rtoes -2.14687e-014
lfemur -10.14 11.8797 -17.9246
ltibia 10.0475
lfoot -1.99172 -17.0737
ltoes -2.70347e-014
10
root -18.9662 16.6335 5.04217 -156.256 85.354 -165.829
rfemur -7.59743 -16.5608 20.9526
rtibia 11.1446
rfoot -10.3987 11.328
rtoes 3.18055e-014
lfemur -10.1306 11.8658 -17.9333
ltibia 10.0517
lfoot -2.00246 -17.0675
ltoes -4.77083e-015
